<svg viewBox="0 0 666 183" xmlns="http://www.w3.org/2000/svg" xml:space="preserve" style="fill-rule:evenodd;clip-rule:evenodd;stroke-linejoin:round;stroke-miterlimit:2"><path d="M0 43h15c21 0 37-4 49-12C79 21 87 6 87-14c0-19-8-33-24-42-13-8-28-11-47-11h-40c-18 0-27 9-27 27V97c0 4 1 6 3 9 4 3 8 4 13 4 7 0 12-2 15-6l2-7V-33c0-4 3-7 7-7h28c9 0 17 1 22 5 9 4 13 12 13 22 0 9-3 16-9 21-5 4-11 6-19 7-5 1-10 4-14 8L-2 40c0 1 0 3 2 3" style="fill:#3f3f46;fill-rule:nonzero" transform="translate(51 72)"/><path d="M0-28h81c3 0 5 1 7 3 3 3 4 6 4 11 0 6-2 10-6 13l-5 1H0c-3 0-6-1-8-3-2-3-4-6-4-11 0-6 2-11 7-13l5-1" style="fill:#3f3f46;fill-rule:nonzero" transform="translate(174 109)"/><path d="M304 146c-13-3-26-8-31-14-4-4-5-7-1-10 5-5 12-7 26-7s28 3 38 8c13 7 14 16 3 21-4 3-5 3-17 3l-18-1Z" style="fill:#fff;fill-rule:nonzero" transform="translate(271 -9) scale(.42015)"/><path d="M180 446c-14-1-20 6-23 4-2-2-4-14-8-45l-3-19h-3c-1 0-13-10-19-10-23 2-41-5-48-19-2-6-11-14-14-39-3-22-12-77-9-93 2-16 6-31 10-43 6-14 8-16 15-19 8-3 38-7 49-9 5-1 2-6 10-6s-3-10-1-19c11-38 22-56 41-75 13-13 33-17 47-20 8-2 24-2 35 1 26 5 38 11 54 27 12 11 25 23 29 35 2 5 7 13 12 17 9 5 13 7 16 15 5 10 8 23 9 36 1 17-21 23-14 38l-2 10v15c-1 64-14 137-26 198-4 23 3 21-16 23-13 2-50 1-52-1l-3-30c-2-17-6-29-6-29 9-4-15-12-19-8l-14 1-5 11-1 27c0 14-5 21-5 21-1 6-2 3-9 5-13 4 0 5-16 5-8 1-9-4-11-5Zm157-299c7-3 9-6 9-10s-1-5-3-8c-7-6-19-11-37-13-26-3-45 6-36 17 5 5 19 11 33 15 9 2 29 1 34-1Z" style="fill:#97c6db;fill-rule:nonzero" transform="translate(271 -9) scale(.42015)"/><path d="M150 449c-11 4-15-12-17-14-1-2-7-14-11-42-2-10-12-21-3-26 1-1-15-2-20-1-21 3-16 11-25 2-8-7-12-13-17-46-4-32-6-76-2-100 3-22 11-49 16-55 2-2 15-2 21-4 9-3 22-4 26-5 2 0 12-10 12-10 1-1 3-5 4-11 17-62 37-98 73-108 9-2 38 0 52 3 40 8 65 25 81 58 5 10 2 12 10 17 12 9 19 13 24 27 5 17 9 30 7 44-2 10-12 12-18 21-4 5-1 11-1 13 0 14-11 67-14 101-6 50-19 122-22 127-4 6-4 8-31 8-16 0-19 3-25-1-5-4-4-13-6-31s-8-32-13-36c-5-5-16-3-24 3-7 5-9 26-10 44 0 10 3 12 2 13 0 2-11 5-22 8-11 2-30-5-47 1Zm179-276c16-3 27-7 35-13 3-2 3-3 3-7-1-9-6-21-10-26-7-9-19-15-35-19l-29-1c-29 0-53 2-66 7-6 2-6 2-3 16 6 23 18 39 32 43 13 4 56 4 73 0Z" style="fill:#4c626a;fill-rule:nonzero" transform="translate(271 -9) scale(.42015)"/><path d="M166 457c-15-1-34-5-37-8l-9-48-3-19H97c-18 0-20-1-25-3-15-6-20-13-23-37-12-72-9-129 9-169 3-9 4-10 8-12a237 237 0 0 1 54-13l4-13c17-60 43-97 77-109 6-2 8-2 25-2 19 0 27 1 43 5 19 5 37 15 51 28 10 9 16 18 23 31 5 11 5 11 12 16 8 5 17 14 20 21 7 14 11 36 9 50-2 13-6 22-15 34-2 3-2 5-3 22-3 62-12 137-23 199-4 21-4 22-30 23-17 1-49 0-50-1l-4-33-5-33-12-1c-11 0-11 0-12 3l-2 23-2 30-1 9-8 2c-16 5-34 6-51 5Zm166-248c13-3 20-5 25-11 8-9 12-19 12-35 0-10-3-23-7-31-6-12-21-22-41-26-9-1-42-2-60 0-31 3-45 8-51 17-6 8-7 23-5 41 3 19 9 28 23 35 13 6 32 9 62 12l42-2Z" style="fill:#fd0503;fill-rule:nonzero" transform="translate(271 -9) scale(.42015)"/><path d="M166 457c-15-1-34-5-37-8l-9-48-3-19H97c-18 0-20-1-25-3-15-6-20-13-23-37-12-72-9-129 9-169 3-9 4-10 8-12a237 237 0 0 1 54-13l4-13c17-60 43-97 77-109 6-2 8-2 25-2 19 0 27 1 43 5 19 5 37 15 51 28 10 9 16 18 23 31 5 11 5 11 12 16 8 5 17 14 20 21 7 14 11 36 9 50-2 13-6 22-15 34-2 3-2 5-3 22-3 62-12 137-23 199-4 21-4 22-30 23-17 1-49 0-50-1l-4-33-5-33-12-1c-11 0-11 0-12 3l-2 23-2 30-1 9-8 2c-16 5-34 6-51 5Zm126-125c16-4 33-14 39-21 10-15 14-24 15-39l3-47c-1-1-5 0-10 1-24 5-76 3-102-4-28-8-44-24-49-47-2-11-3-34-1-43 3-14 10-25 19-31 9-5 26-9 49-12 12-1 59-2 65-1 4 1 4 0-1-7-19-25-47-38-86-40-23-2-35 2-51 18a87 87 0 0 0-27 45c-4 26-5 78-3 104 3 35 11 64 20 80 16 25 38 39 72 45 13 3 37 2 48-1Zm40-123c13-3 20-5 25-11 9-9 12-19 12-35 0-10-3-23-7-31-6-12-21-22-41-26-9-1-42-2-60 0-31 3-45 8-51 17-5 8-7 23-5 41 3 19 9 28 23 35 13 6 32 9 62 12l42-2ZM80 199l18-1h12l2-15 2-15c-1-1-24 4-32 6-8 3-8 3-14 19-3 11-3 11 2 9l10-3Z" style="fill:#cd0000;fill-rule:nonzero" transform="translate(271 -9) scale(.42015)"/><path d="M166 457c-15-1-34-5-37-8l-9-48-3-19H97c-18 0-20-1-25-3-15-6-20-13-23-37-12-72-9-129 9-169 3-9 4-10 8-12a237 237 0 0 1 54-13l4-13c17-60 43-97 77-109 6-2 8-2 25-2 19 0 27 1 43 5 19 5 37 15 51 28 10 9 16 18 23 31 5 11 5 11 12 16 8 5 17 14 20 21 7 14 11 36 9 50-2 13-6 22-15 34-2 3-2 5-3 22-3 62-12 137-23 199-4 21-4 22-30 23-17 1-49 0-50-1l-4-33-5-33-12-1c-11 0-11 0-12 3l-2 23-2 30-1 9-8 2c-16 5-34 6-51 5Zm33-18 10-3 1-18c1-30 4-44 7-49 3-3 9-3 52-3 27 0 36 1 36 2 0 3-13 11-25 14l-7 2c-1 1 3 39 4 49l1 3h44l3-1 3-18a1698 1698 0 0 0 21-193l-10 1c-7 2-12 2-36 3-38 0-62-4-81-13-18-8-27-19-32-38-3-10-4-37-2-46 4-15 13-28 25-32 9-3 22-7 36-8a470 470 0 0 1 75-2c2-1-12-18-21-25-13-10-27-17-45-21-13-3-44-4-51-1-17 5-33 21-46 43-9 17-21 53-26 81a793 793 0 0 0 9 270l9 2 8 2c3 1 31 0 38-1Zm-87-75-1-18a911 911 0 0 1 4-180l-33 7c-7 2-8 3-9 6-8 17-14 54-14 85 0 30 6 87 11 93 4 7 10 8 27 8l15-1Zm220-155c13-3 20-5 25-11 8-9 12-19 12-35 0-10-3-23-7-31-6-12-21-22-41-26-9-1-42-2-60 0-31 3-45 8-51 17-6 8-7 23-5 41 3 19 9 28 23 35 13 6 32 9 62 12l42-2Z" style="fill:#a20000;fill-rule:nonzero" transform="translate(271 -9) scale(.42015)"/><path d="M166 457c-15-1-34-5-37-8l-9-48-3-19H97c-18 0-20-1-25-3-15-6-20-13-23-37-12-72-9-129 9-169 3-9 4-10 8-12a237 237 0 0 1 54-13l4-13c17-60 43-97 77-109 6-2 8-2 25-2 19 0 27 1 43 5 19 5 37 15 51 28 10 9 16 18 23 31 5 11 5 11 12 16 8 5 17 14 20 21 7 14 11 36 9 50-2 13-6 22-15 34-2 3-2 5-3 22-3 62-12 137-23 199-4 21-4 22-30 23-17 1-49 0-50-1l-4-33-5-33-12-1c-11 0-11 0-12 3l-2 23-2 30-1 9-8 2c-16 5-34 6-51 5Zm22-16c13-1 21-3 22-5l2-23c2-34 3-43 9-45l43-1c33 0 39 0 39 2 0 3-12 9-24 12l-7 2c-1 1 3 45 4 52 1 2 2 2 13 2 13 1 34 0 36-1l10-55c7-47 15-126 15-150v-9l-3 1c-11 3-16 3-37 4-42 1-70-4-91-15-22-11-31-30-31-63 0-18 3-30 12-40 7-8 20-13 45-17a455 455 0 0 1 80-2c2-1-7-12-14-20-21-21-52-32-89-31l-14 1-9 4c-15 8-30 24-40 44-9 18-17 40-23 65a795 795 0 0 0 6 283l9 3 25 3 12-1Zm-75-77-1-18a908 908 0 0 1 3-180c-1-1-20 3-32 6-10 3-10 4-15 18-11 31-13 80-6 133 4 33 6 37 15 41 5 2 7 2 20 2l16-2Zm219-155c13-3 20-5 25-11 8-9 12-19 12-35 0-10-3-23-7-31-6-12-21-22-41-26-9-1-42-2-60 0-31 3-45 8-51 17-6 8-7 23-5 41 3 19 9 28 23 35 13 6 32 9 62 12l42-2Z" style="fill:#5d0000;fill-rule:nonzero" transform="translate(271 -9) scale(.42015)"/><path d="M166 457c-15-1-34-5-37-8l-9-48-3-19H97c-18 0-20-1-25-3-15-6-20-13-23-37-12-72-9-129 9-169 3-9 4-10 8-12a237 237 0 0 1 54-13l4-13c17-60 43-97 77-109 6-2 8-2 25-2 19 0 27 1 43 5 19 5 37 15 51 28 10 9 16 18 23 31 5 11 5 11 12 16 8 5 17 14 20 21 7 14 11 36 9 50-2 13-6 22-15 34-2 3-2 5-3 22-3 62-12 137-23 199-4 21-4 22-30 23-17 1-49 0-50-1l-4-33-5-33-12-1c-11 0-11 0-12 3l-2 23-2 30-1 9-8 2c-16 5-34 6-51 5Zm36-16 9-3 2-23c2-37 3-44 9-46h79c-1 3-13 8-22 10-6 2-9 3-9 5l6 53c2 3 46 2 49 0a1588 1588 0 0 0 26-207c1-9 1-9-11-7-10 2-13 3-38 3-39 0-61-4-81-13-19-10-28-22-31-45-2-12-2-29 0-37 3-12 10-23 18-28 9-5 31-10 57-12a431 431 0 0 1 62-1c0-3-9-15-17-22a96 96 0 0 0-36-22c-14-5-23-7-43-8-18 0-19 0-25 2-19 6-37 25-51 53-12 26-22 60-26 93a893 893 0 0 0 13 252 116 116 0 0 0 60 3Zm-91-75h3v-7l-1-24a898 898 0 0 1 3-156v-14c-1-1-24 3-35 7l-9 3-3 8a361 361 0 0 0-2 174c3 8 14 11 30 11l14-2Zm221-157c13-3 20-5 25-11 8-9 12-19 12-35 0-10-3-23-7-31-6-12-21-22-41-26-9-1-42-2-60 0-31 3-45 8-51 17-6 8-7 23-5 41 3 19 9 28 23 35 13 6 32 9 62 12l42-2Z" style="fill:#050202;fill-rule:nonzero" transform="translate(271 -9) scale(.42015)"/><path d="m310 148-10-1-25-10c-6-5-8-9-6-13 4-7 19-10 36-8 18 2 31 7 37 13l3 3 1 4-1 4-3 4c-5 4-10 4-22 5l-10-1Z" style="fill:#fff;fill-rule:nonzero" transform="translate(271 -9) scale(.42015)"/><g><path d="m0-39 33 11-21-61c-4-14-14-21-27-21-8 0-14 2-19 6-6 5-9 12-9 20V58c0 3 1 6 4 8 3 3 7 5 12 5 7 0 11-3 14-7l1-7V-74L0-39Z" style="fill:#3f3f46;fill-rule:nonzero" transform="translate(521 112)"/></g><g><path d="m0-100-22 7c-6 2-11 7-13 13l-14 39-14-39c-2-6-7-11-13-13l-21-7 28 84C-65-5-59 0-49 0c7 0 12-3 16-8l5-8 28-84Z" style="fill:#3f3f46;fill-rule:nonzero" transform="translate(621 182)"/></g><g><path d="M0-164c-5-5-12-8-21-8-14 0-23 7-28 20l-20 62 33-11 12-35 1 131c0 4 1 6 3 8 3 4 5 5 11 5 5 0 9-1 12-4 2-3 3-5 3-9v-141c0-7-2-13-6-18" style="fill:#3f3f46;fill-rule:nonzero" transform="translate(659 174)"/></g></svg>